<?xml version="1.0" encoding="utf-8"?>
<!DOCTYPE svg PUBLIC "-//W3C//DTD SVG 1.1//EN" "http://www.w3.org/Graphics/SVG/1.1/DTD/svg11.dtd">
<svg version="1.1" xmlns="http://www.w3.org/2000/svg" xmlns:xlink="http://www.w3.org/1999/xlink" x="0px" y="0px"
	 viewBox="0 0 289.1 42.5" enable-background="new 0 0 289.1 42.5" xml:space="preserve">
<g>
	<path d="M287.2,39v-3.5h-18.6V22.4h15.9V19h-15.9V6.2h18.6V2.7h-22.5V39H287.2z M242.5,20.4c0,4.4,0.1,9.8-2.4,12.4
		c-1.9,1.9-4.3,2.7-7.1,2.7h-7.9V6.2h7.9c2.8,0,5.2,0.7,7.1,2.7C242.6,11.4,242.5,16,242.5,20.4 M246.4,20.4c0-5,0.2-10.6-3.6-14.4
		c-2.2-2.2-5.4-3.4-9.2-3.4h-12.4V39h12.4c3.8,0,7-1.2,9.2-3.4C246.6,31.8,246.4,25.5,246.4,20.4 M205.7,22.7v-2.8h-1.1
		c-0.8,0-1.5-0.4-2-0.8c-0.5-0.5-0.8-1.4-0.8-2.6V8.1c0-2.3-0.4-3.4-1.3-4.4c-0.9-0.9-2.2-1.3-4.4-1.3h-1.7v2.8h1.1
		c1.5,0,2.1,0.1,2.6,0.6c0.5,0.5,0.7,1.3,0.7,2.9v8.3c0,2.5,1.1,3.6,2.8,4.4c-1.7,0.8-2.8,1.9-2.8,4.4V34c0,1.6-0.2,2.4-0.7,2.9
		c-0.4,0.4-1,0.6-2.6,0.6h-1.1v2.8h1.7c2.2,0,3.5-0.4,4.4-1.3c1-1,1.3-2.1,1.3-4.4v-8.4c0-1.2,0.3-2.1,0.8-2.6
		c0.4-0.4,1.1-0.8,2-0.8H205.7z M185.7,40.2v-2.8h-1c-1.5,0-2.2-0.1-2.6-0.6c-0.5-0.5-0.6-1.3-0.6-2.9v-8.3c0-2.5-1.1-3.6-2.8-4.4
		c1.7-0.8,2.8-1.9,2.8-4.4V8.6c0-1.6,0.1-2.4,0.6-2.9c0.4-0.4,1.1-0.6,2.6-0.6h1V2.4H184c-2.2,0-3.5,0.4-4.4,1.3
		c-1,1-1.3,2.1-1.3,4.4v8.4c0,1.2-0.3,2.1-0.8,2.6c-0.4,0.4-1.1,0.8-2,0.8h-1.1v2.8h1.1c0.8,0,1.5,0.4,2,0.8
		c0.5,0.5,0.8,1.4,0.8,2.6v8.4c0,2.3,0.4,3.4,1.3,4.4c0.9,0.9,2.2,1.3,4.4,1.3H185.7z M159,28.5h-3.9c-1,4.4-4.2,7.3-8.7,7.3
		c-2.4,0-4.7-0.9-6.3-2.5c-2.3-2.3-2.5-4.8-2.5-12.4s0.3-10.1,2.5-12.4c1.6-1.6,3.9-2.5,6.3-2.5c4.5,0,7.6,2.9,8.6,7.3h4
		c-1.2-6.8-6.1-10.8-12.6-10.8c-3.6,0-6.8,1.3-9.3,3.8c-3.4,3.4-3.4,7-3.4,14.7s0,11.3,3.4,14.7c2.4,2.4,5.7,3.8,9.3,3.8
		C152.9,39.3,157.8,35.3,159,28.5 M110.7,20.8c0,7.6-0.3,10-2.5,12.4c-1.6,1.6-3.9,2.6-6.3,2.6c-2.4,0-4.7-1-6.3-2.6
		c-2.3-2.3-2.5-4.8-2.5-12.4s0.3-10,2.5-12.4c1.6-1.6,3.9-2.6,6.3-2.6c2.4,0,4.7,1,6.3,2.6C110.5,10.8,110.7,13.2,110.7,20.8
		 M114.6,20.8c0-7.7,0-11.3-3.4-14.7c-2.4-2.4-5.7-3.8-9.3-3.8c-3.6,0-6.8,1.3-9.3,3.8c-3.4,3.4-3.4,7-3.4,14.7s0,11.3,3.4,14.7
		c2.4,2.4,5.7,3.8,9.3,3.8c3.6,0,6.8-1.3,9.3-3.8C114.6,32.1,114.6,28.5,114.6,20.8 M72,39v-3.5H53.4V22.4h15.9V19H53.4V6.2H72V2.7
		H49.5V39H72z M28.3,39V2.7h-3.9v29L5.2,2.7H1.5V39h3.9V9.9L24.6,39H28.3z"/>
</g>
</svg>
